<?xml version="1.0" encoding="utf-8"?>
<!-- Generator: Adobe Illustrator 21.1.0, SVG Export Plug-In . SVG Version: 6.00 Build 0)  -->
<svg version="1.1" xmlns="http://www.w3.org/2000/svg" xmlns:xlink="http://www.w3.org/1999/xlink" x="0px" y="0px"
	 viewBox="0 0 72 72" style="enable-background:new 0 0 72 72;" xml:space="preserve">
<style type="text/css">
	.icon_x002D_canvas_x002D_transparent{opacity:0;fill:#F6F6F6;}
	.fill_x002D_2B2B2B{fill:#2B2B2B;}
	.fill_x002D_767676{fill:#767676;}
	.fill_x002D_99ECFF{fill:#99ECFF;}
	.st0{fill:#E81123;}
</style>
<g id="canvas">
	<path class="icon_x002D_canvas_x002D_transparent" d="M72,72H0V0H72V72z"/>
</g>
<g id="iconFg">
	<path class="fill_x002D_99ECFF" d="M52.1,26.5c0,2.1-0.4,4.1-1.2,6c-0.8,1.9-1.9,3.5-3.3,4.9c-1.4,1.4-3.1,2.5-4.9,3.3
		c-1.9,0.8-3.9,1.2-6,1.2c-2.1,0-4.2-0.4-6-1.2c-1.9-0.8-3.5-1.9-4.9-3.3c-1.4-1.4-2.5-3-3.3-4.9c-0.8-1.9-1.2-3.9-1.2-6
		c0-2.1,0.4-4.1,1.2-6c0.8-1.9,1.9-3.5,3.3-4.9c1.4-1.4,3.1-2.5,4.9-3.3c3.7-1.6,8.3-1.6,12,0c1.9,0.8,3.5,1.9,4.9,3.3
		c1.4,1.4,2.5,3,3.3,4.9C51.6,22.3,52.1,24.4,52.1,26.5z"/>
</g>
<g id="iconBg">
	<path class="fill_x002D_2B2B2B" d="M42.8,59.1h15.8v3.4H42.8V59.1z M46.5,43.5c-1.5,0.9-3,1.5-4.7,2c-3.8,1.1-8.1,0.9-11.9-0.5
		c-1.8-0.7-3.5-1.6-5.1-2.8l-1.1,1.1c0,0.1,0.1,0.1,0.1,0.2c0.3,0.5,0.4,1,0.4,1.6c0,0.9-0.3,1.7-0.9,2.3L9.1,61.4
		c-0.5,0.5-1.1,0.9-1.7,1.2c-0.6,0.3-1.3,0.4-2,0.4c-0.7,0-1.4-0.1-2-0.4c-0.6-0.3-1.2-0.6-1.7-1.1c-0.5-0.5-0.9-1-1.1-1.6
		c-0.3-0.6-0.4-1.3-0.4-2.1c0-0.7,0.1-1.5,0.4-2.1c0.3-0.7,0.7-1.3,1.2-1.9l14-14c1-1,2.8-1.2,3.9-0.5c0,0,0.1,0.1,0.1,0.1l1.1-1.1
		c-1.2-1.6-2.1-3.3-2.8-5.1c-0.8-2.1-1.2-4.4-1.2-6.7c0-1.8,0.2-3.6,0.7-5.2c0.5-1.7,1.1-3.3,2-4.7c0.9-1.5,1.9-2.8,3.1-4
		c1.2-1.2,2.5-2.2,4-3.1c1.5-0.9,3-1.5,4.7-2c3.3-0.9,7.1-0.9,10.5,0c1.7,0.5,3.3,1.1,4.7,2c1.5,0.9,2.8,1.9,4,3.1
		c1.2,1.2,2.2,2.5,3.1,4c0.9,1.5,1.5,3,2,4.7c0.5,1.7,0.7,3.4,0.7,5.2c0,1.8-0.2,3.6-0.7,5.2c-0.5,1.7-1.1,3.2-2,4.7
		c-0.9,1.5-1.9,2.8-3.1,4C49.3,41.6,48,42.6,46.5,43.5z M42.6,40.7c1.9-0.8,3.5-1.9,4.9-3.3c1.4-1.4,2.5-3.1,3.3-4.9
		c0.8-1.9,1.2-3.9,1.2-6c0-2.1-0.4-4.1-1.2-6c-0.8-1.9-1.9-3.5-3.3-4.9c-1.4-1.4-3.1-2.5-4.9-3.3c-3.7-1.6-8.3-1.6-12,0
		c-1.9,0.8-3.5,1.9-4.9,3.3c-1.4,1.4-2.5,3-3.3,4.9c-0.8,1.9-1.2,3.9-1.2,6c0,2.1,0.4,4.1,1.2,6c0.8,1.9,1.9,3.5,3.3,4.9
		c1.4,1.4,3.1,2.5,4.9,3.3c1.9,0.8,3.9,1.2,6,1.2C38.7,41.9,40.7,41.5,42.6,40.7z M71.1,47.8c-0.3,0-0.6-0.1-0.9-0.2
		c-0.3-0.1-0.6-0.3-0.8-0.5c-0.2-0.2-0.4-0.5-0.5-0.8c-0.1-0.3-0.2-0.6-0.2-0.9c0-0.6,0-1.2,0-1.8c0-0.7,0-1.3-0.1-1.9
		c-0.1-0.7-0.2-1.3-0.5-1.9c-0.3-0.7-0.7-1.3-1.2-1.8c-0.5-0.5-1.2-1-1.9-1.3c-0.7-0.3-1.5-0.4-2.3-0.4h-0.9v3.5h0.9
		c0.3,0,0.6,0.1,0.9,0.2c0.3,0.1,0.6,0.3,0.8,0.5c0.2,0.2,0.4,0.5,0.5,0.8c0.1,0.3,0.2,0.6,0.2,0.9c0,0.5,0,0.9,0,1.4
		c0,0.5,0,1,0,1.5c0,0.5,0.1,1,0.1,1.5c0.1,0.5,0.2,1,0.4,1.4c0.2,0.5,0.5,0.9,0.8,1.3c0.1,0.1,0.2,0.3,0.4,0.4
		c-0.1,0.1-0.3,0.3-0.4,0.4c-0.3,0.4-0.6,0.9-0.8,1.3c-0.2,0.5-0.3,0.9-0.4,1.4c-0.1,0.5-0.1,1-0.1,1.4c0,0.5,0,1,0,1.5
		c0,0.5,0,0.9,0,1.4c0,0.3-0.1,0.6-0.2,0.9c-0.1,0.3-0.3,0.6-0.5,0.8c-0.2,0.2-0.5,0.4-0.8,0.5c-0.3,0.1-0.6,0.2-0.9,0.2h-0.9V63
		h0.9c0.8,0,1.5-0.1,2.3-0.4c0.7-0.3,1.4-0.7,1.9-1.3c0.6-0.6,1-1.2,1.2-1.8c0.2-0.6,0.4-1.3,0.5-1.9c0.1-0.6,0.1-1.3,0.1-1.9
		c0-0.6,0-1.2,0-1.8c0-0.3,0.1-0.6,0.2-0.9c0.1-0.3,0.3-0.6,0.5-0.8c0.2-0.2,0.5-0.4,0.8-0.5c0.3-0.1,0.6-0.2,0.9-0.2H72v-3.5H71.1z
		 M48.2,46.4c-1.7,1-3.6,1.8-5.5,2.3c0,0,0,0,0,0l0,0.2h18.1v-3.4H49.5C49.1,45.8,48.7,46.1,48.2,46.4z M42.8,52.3v3.4h13.5v-3.4
		H42.8z M27,20.3v4.6h17.9v-4.6H27z"/>
</g>
<g id="colorImportance">
	<path class="st0" d="M51.8,29.2c-0.2,1.1-0.5,2.2-1,3.2c-0.2,0.4-0.5,0.8-0.7,1.3H35.9l0.1-4.5H51.8z M53.3,42.3h5.2v-3.4H56
		C55.2,40.1,54.3,41.3,53.3,42.3z"/>
	<path class="fill_x002D_767676" d="M20.3,45.1L6.5,58.8c-0.3,0.3-0.7,0.5-1.2,0.5c-0.5,0-0.9-0.2-1.2-0.5c-0.3-0.3-0.5-0.7-0.5-1.2
		c0-0.5,0.2-1,0.6-1.3l13.9-13.5L20.3,45.1z"/>
</g>
</svg>
